<?xml version="1.0" encoding="UTF-8"?>
<svg width="700pt" height="700pt" version="1.1" viewBox="0 0 700 700" xmlns="http://www.w3.org/2000/svg">
 <path d="m389.48-0.066406c-4.3359 0.23828-8.4297 2.0781-11.484 5.1641l-302.8 302.8c-3.3008 3.2852-5.1602 7.75-5.1602 12.406s1.8594 9.1211 5.1602 12.406l222.07 222.2h-0.003907c3.2852 3.3008 7.75 5.1562 12.41 5.1562 4.6562 0 9.1211-1.8555 12.406-5.1562l302.8-302.93c3.9219-3.9414 5.7344-9.5117 4.8867-15.004l-29.562-192.61c-0.57422-3.6641-2.293-7.0547-4.918-9.6758-2.625-2.625-6.0117-4.3477-9.6797-4.918l-192.6-29.566c-1.1602-0.20703-2.3398-0.29687-3.5195-0.26953zm7.0078 36.164 171.04 26.352 26.352 171.04-284.2 284.2-197.39-197.39zm97.512 38.895c-33.535 0-61.113 27.578-61.113 61.113 0 33.535 27.578 60.977 61.113 60.977s60.977-27.441 60.977-60.977c0-33.535-27.441-61.113-60.977-61.113zm0 35c14.617 0 26.113 11.496 26.113 26.113 0 14.617-11.496 26.078-26.113 26.078-14.617 0-26.078-11.461-26.078-26.078 0-14.617 11.461-26.113 26.078-26.113zm-184.09 79.195v21.844c-3.4766 0.58984-6.9297 1.2539-10.254 2.2578-7.7773 2.2695-14.117 5.0391-19.004 8.6484-6.2891 4.4922-11.27 10.219-14.973 17.055-3.6289 6.8008-5.5703 14.352-5.5703 22.32 0 8.7578 2.3242 16.953 6.7344 24.301 4.5703 7.3086 11.305 13.18 19.754 17.297 8.5352 3.9922 22.898 8.3555 43.543 13.57 15.133 3.8086 24.777 7.3711 27.379 9.0586 4.6094 3.0469 6.4609 6.4453 6.4609 11.621 0 5.8828-2.3359 10.656-7.8945 15.383-5.1875 4.3242-13.746 6.8359-26.078 6.8359-12.148 0-21.113-2.6875-27.379-7.8594-6.2266-5.2188-10.062-12.625-11.52-23.004l-0.51172-3.4883-17.703-0.007813h-18.973l0.89062 4.7852c3.2344 18.23 11.168 36.406 23.652 46.348 8.1914 6.4609 18.844 10.449 31.445 12.508v22.215h35.035v-21.602c7.6953-1.0859 14.941-2.9727 21.637-5.8789h0.10156c10.844-4.8203 19.344-11.66 25.191-20.543 5.8789-8.875 8.9219-18.555 8.9219-28.676 0-10.168-2.4961-19.023-7.4844-26.215-4.9062-7.0742-11.68-12.594-20.168-16.168v0.14062c-8.2344-3.6211-22.074-7.9844-41.977-13.297-13.672-3.7305-22.125-6.2656-24.402-7.1094-4.3047-1.7695-7.2383-3.8672-8.9219-6.0859v-0.097656c-1.7852-2.2695-2.5977-4.4492-2.5977-7.2461 0-4.4258 1.9141-8.168 6.7344-11.895 4.3086-3.3359 12.625-5.5391 25.055-5.5391 10.312 0 17.746 2.3008 22.73 6.3242 5.2188 4.1406 8.3047 9.7266 9.4336 17.434l0.51172 3.3477h35.922l-0.78516-4.6523c-1.8281-11.066-5.1523-23.484-10.699-31-5.2383-7.2148-13.281-12.578-23.652-16.508-4.8242-1.8477-10.055-3.1797-15.551-4.1719v-22.254z"/>
</svg>
