<?xml version="1.0" encoding="UTF-8"?>
<svg>
 <path d="m373.33 163.33c0-12.887-10.445-23.332-23.332-23.332s-23.332 10.445-23.332 23.332v140c0 6.1914 2.457 12.125 6.832 16.5l70 70c9.1133 9.1133 23.887 9.1133 33 0s9.1133-23.887 0-32.996l-63.168-63.168zm141.65 281.65c-44.066 44.074-102.67 68.348-164.98 68.348-62.324 0-120.92-24.273-164.98-68.348-44.074-44.066-68.348-102.66-68.348-164.98 0-62.316 24.273-120.91 68.348-164.98 44.066-44.074 102.66-68.348 164.98-68.348 62.316 0 120.92 24.273 164.98 68.348 44.074 44.074 68.348 102.67 68.348 164.98 0 62.324-24.273 120.92-68.348 164.98zm-164.98-444.98c-74.797 0-145.1 29.129-197.98 82.023-52.887 52.875-82.016 123.19-82.016 197.98s29.129 145.1 82.016 197.98c52.883 52.895 123.19 82.023 197.98 82.023 74.785 0 145.09-29.129 197.98-82.023 52.895-52.875 82.023-123.19 82.023-197.98s-29.129-145.1-82.016-197.98c-52.891-52.895-123.2-82.023-197.98-82.023z" fill-rule="evenodd"/>
</svg>
